<?xml version="1.0" encoding="UTF-8" standalone="no"?>
<svg
   width="100%"
   height="100%"
   viewBox="0 0 1600 1200"
   version="1.1"
   preserveAspectRatio="xMinYMin slice"
   xml:space="preserve"
   style="fill-rule:evenodd;clip-rule:evenodd;stroke-linejoin:round;stroke-miterlimit:2;"
   id="svg134"
   sodipodi:docname="background.svg"
   inkscape:version="1.1.1 (3bf5ae0d25, 2021-09-20)"
   xmlns:inkscape="http://www.inkscape.org/namespaces/inkscape"
   xmlns:sodipodi="http://sodipodi.sourceforge.net/DTD/sodipodi-0.dtd"
   xmlns="http://www.w3.org/2000/svg"
   xmlns:svg="http://www.w3.org/2000/svg"><defs
   id="defs138" /><sodipodi:namedview
   id="namedview136"
   pagecolor="#505050"
   bordercolor="#eeeeee"
   borderopacity="1"
   inkscape:pageshadow="0"
   inkscape:pageopacity="0"
   inkscape:pagecheckerboard="0"
   showgrid="false"
   inkscape:zoom="3.3893985"
   inkscape:cx="975.83686"
   inkscape:cy="127.01369"
   inkscape:window-width="1920"
   inkscape:window-height="1017"
   inkscape:window-x="-8"
   inkscape:window-y="-8"
   inkscape:window-maximized="1"
   inkscape:current-layer="Layer_1_2_Copy" />
            <g
   id="Layer_1_2_Copy">
                <rect
   x="0"
   y="0"
   width="1600"
   height="1200"
   style="fill:rgb(94,74,227);"
   id="rect2" />
                <clipPath
   id="_clip1">
                    <rect
   x="0"
   y="0"
   width="1600"
   height="1200"
   id="rect4" />
                </clipPath>
                <g
   clip-path="url(#_clip1)"
   id="g131">
                    <g
   id="g129">
                        <path
   d="M-2.962,220.855L-2.962,312.193L357.662,592.37C373.722,604.848 396.892,601.939 409.37,585.878C421.848,569.818 418.939,546.648 402.878,534.17L6.428,226.16C3.499,223.884 0.333,222.12 -2.962,220.855Z"
   style="fill:rgb(158,183,229);"
   id="path7" />
                        <path
   d="M110.185,535.218L426.995,784.998C442.966,797.59 466.156,794.846 478.748,778.875C491.34,762.904 488.596,739.714 472.625,727.122L155.815,477.342C139.844,464.75 116.654,467.494 104.062,483.465C91.47,499.436 94.214,522.626 110.185,535.218Z"
   style="fill:rgb(158,183,229);"
   id="path9" />
                        <path
   d="M143.508,300.361L312.298,429.691C328.441,442.06 351.591,438.996 363.961,422.852C376.33,406.709 373.266,383.559 357.122,371.189L188.332,241.859C172.189,229.49 149.039,232.554 136.669,248.698C124.3,264.841 127.364,287.991 143.508,300.361Z"
   style="fill:rgb(158,183,229);"
   id="path11" />
                        <path
   d="M308.676,1200L427.793,1200C425.434,1196.22 422.345,1192.81 418.559,1189.98L154.967,993.508C138.66,981.353 115.553,984.724 103.399,1001.03C91.244,1017.34 94.615,1040.44 110.922,1052.6L308.676,1200Z"
   style="fill:rgb(158,183,229);"
   id="path13" />
                        <path
   d="M830.588,725.585L1232.33,1030.15C1248.54,1042.44 1271.67,1039.26 1283.95,1023.05C1296.24,1006.85 1293.06,983.712 1276.85,971.425L875.112,666.855C858.905,654.568 835.772,657.751 823.485,673.958C811.198,690.165 814.381,713.298 830.588,725.585Z"
   style="fill:rgb(158,183,229);"
   id="path15" />
                        <path
   d="M1179.89,852.038L1416.78,1029.07C1433.07,1041.24 1456.18,1037.9 1468.36,1021.61C1480.53,1005.32 1477.19,982.207 1460.9,970.032L1224.01,793.002C1207.72,780.827 1184.61,784.169 1172.43,800.461C1160.26,816.752 1163.6,839.863 1179.89,852.038Z"
   style="fill:rgb(158,183,229);"
   id="path17" />
                        <path
   d="M895.931,831.402L688.651,671.802C672.537,659.394 649.38,662.404 636.972,678.519C624.564,694.633 627.574,717.79 643.689,730.198L850.969,889.798C867.083,902.206 890.24,899.196 902.648,883.081C915.056,866.967 912.046,843.81 895.931,831.402Z"
   style="fill:rgb(158,183,229);"
   id="path19" />
                        <path
   d="M580.088,173.581L1040.5,509.091C1056.93,521.069 1080,517.449 1091.98,501.012C1103.96,484.576 1100.34,461.506 1083.9,449.529L623.492,114.019C607.056,102.041 583.986,105.661 572.009,122.098C560.031,138.534 563.651,161.604 580.088,173.581Z"
   style="fill:rgb(158,183,229);"
   id="path21" />
                        <path
   d="M903.266,278.532L1236.16,517.572C1252.68,529.435 1275.72,525.654 1287.58,509.134C1299.44,492.614 1295.66,469.57 1279.14,457.708L946.254,218.668C929.734,206.805 906.69,210.586 894.828,227.106C882.965,243.626 886.746,266.67 903.266,278.532Z"
   style="fill:rgb(158,183,229);"
   id="path23" />
                        <path
   d="M1121.68,277.719L1208.48,338.959C1225.09,350.685 1248.1,346.713 1259.83,330.095C1271.56,313.478 1267.58,290.467 1250.96,278.741L1164.17,217.501C1147.56,205.775 1124.55,209.747 1112.82,226.365C1101.1,242.982 1105.07,265.993 1121.68,277.719Z"
   style="fill:rgb(158,183,229);"
   id="path25" />
                        <path
   d="M180.831,0L57.506,0L265.478,155.011C281.785,167.165 304.892,163.794 317.046,147.487C329.2,131.18 325.829,108.073 309.522,95.919L180.831,0Z"
   style="fill:rgb(158,183,229);"
   id="path27" />
                        <path
   d="M1600.04,793.539L1600.04,702.759L1456.8,599.743C1440.28,587.869 1417.24,591.633 1405.36,608.145C1393.49,624.656 1397.25,647.702 1413.77,659.577L1600.04,793.539Z"
   style="fill:rgb(158,183,229);"
   id="path29" />
                        <path
   d="M1600.04,679.237L1600.04,588.828L1582.6,576.44C1566.02,564.661 1543,568.557 1531.22,585.136C1519.44,601.716 1523.34,624.74 1539.92,636.52L1600.04,679.237Z"
   style="fill:rgb(158,183,229);"
   id="path31" />
                        <path
   d="M1256.95,0L1145.35,0C1147.12,9.226 1152.38,17.785 1160.74,23.5L1423.85,203.38C1440.64,214.859 1463.59,210.547 1475.07,193.757C1486.55,176.968 1482.24,154.018 1465.45,142.54L1256.95,0Z"
   style="fill:rgb(158,183,229);"
   id="path33" />
                        <path
   d="M952.798,1200L1070.65,1200L1008.37,1157.36C991.589,1145.87 968.636,1150.16 957.146,1166.94C950.253,1177.01 949.041,1189.3 952.798,1200Z"
   style="fill:rgb(158,183,229);"
   id="path35" />
                        <path
   d="M566.348,179.167L1037.48,522.967C1053.91,534.956 1076.98,531.351 1088.97,514.922C1100.96,498.493 1097.35,475.422 1080.92,463.433L609.792,119.633C593.363,107.644 570.292,111.249 558.303,127.678C546.314,144.107 549.919,167.178 566.348,179.167Z"
   style="fill:rgb(245,221,144);"
   id="path37" />
                        <path
   d="M635.296,738.15L845.316,900.12C861.421,912.541 884.58,909.549 897,893.444C909.421,877.339 906.429,854.18 890.324,841.76L680.304,679.79C664.199,667.369 641.04,670.361 628.62,686.466C616.199,702.571 619.191,725.73 635.296,738.15Z"
   style="fill:rgb(245,221,144);"
   id="path39" />
                        <path
   d="M1600.04,689.48L1600.04,599.038L1572.15,579.201C1555.58,567.413 1532.55,571.298 1520.76,587.871C1508.97,604.444 1512.86,627.47 1529.43,639.259L1600.04,689.48Z"
   style="fill:rgb(245,221,144);"
   id="path41" />
                        <path
   d="M283.708,1200L407.029,1200L134.415,996.8C118.108,984.645 95.001,988.016 82.847,1004.32C70.692,1020.63 74.063,1043.74 90.37,1055.89L283.708,1200Z"
   style="fill:rgb(245,221,144);"
   id="path43" />
                        <path
   d="M128.267,301.955L309.097,440.715C325.232,453.096 348.383,450.048 360.765,433.913C373.146,417.778 370.098,394.627 353.963,382.245L173.133,243.485C156.998,231.104 133.847,234.152 121.465,250.287C109.084,266.422 112.132,289.573 128.267,301.955Z"
   style="fill:rgb(245,221,144);"
   id="path45" />
                        <path
   d="M1236.36,0L1135.01,0C1134.86,11.908 1140.48,23.668 1151.03,30.895L1423.06,217.175C1439.84,228.666 1462.79,224.371 1474.29,207.59C1485.78,190.81 1481.48,167.857 1464.7,156.365L1236.36,0Z"
   style="fill:rgb(245,221,144);"
   id="path47" />
                        <path
   d="M97.734,539.041L421.414,794.611C437.376,807.215 460.568,804.488 473.171,788.526C485.775,772.564 483.048,749.372 467.086,736.769L143.406,481.199C127.444,468.595 104.252,471.322 91.649,487.284C79.045,503.246 81.772,526.438 97.734,539.041Z"
   style="fill:rgb(242,108,167);"
   id="path49" />
                        <path
   d="M896.617,286.069L1228.35,524.599C1244.86,536.472 1267.9,532.705 1279.78,516.193C1291.65,499.68 1287.88,476.635 1271.37,464.761L939.643,226.231C923.13,214.358 900.085,218.125 888.211,234.637C876.338,251.15 880.105,274.195 896.617,286.069Z"
   style="fill:rgb(242,108,167);"
   id="path51" />
                        <path
   d="M1177.04,862.105L1409.86,1036.32C1426.15,1048.5 1449.26,1045.17 1461.44,1028.89C1473.63,1012.6 1470.3,989.49 1454.02,977.305L1221.2,803.095C1204.91,790.911 1181.8,794.239 1169.62,810.523C1157.43,826.807 1160.76,849.92 1177.04,862.105Z"
   style="fill:rgb(242,108,167);"
   id="path53" />
                        <path
   d="M940.691,1200L1051.87,1200L997.746,1162.94C980.965,1151.45 958.012,1155.75 946.522,1172.53C940.802,1180.88 938.994,1190.77 940.691,1200Z"
   style="fill:rgb(242,108,167);"
   id="path55" />
                        <path
   d="M1085.76,971.436L994.5,902.163C978.3,889.867 955.165,893.036 942.868,909.236C930.572,925.436 933.741,948.571 949.941,960.868L1041.2,1030.14C1057.4,1042.44 1080.54,1039.27 1092.84,1023.07C1105.13,1006.87 1101.96,983.732 1085.76,971.436Z"
   style="fill:rgb(158,183,229);"
   id="path57" />
                        <path
   d="M1085.76,982.523L994.5,913.25C978.3,900.954 955.165,904.123 942.868,920.323C930.572,936.523 933.741,959.658 949.941,971.955L1041.2,1041.23C1057.4,1053.52 1080.54,1050.36 1092.84,1034.15C1105.13,1017.96 1101.96,994.819 1085.76,982.523Z"
   style="fill:rgb(242,108,167);"
   id="path59" />
                        <path
   d="M499.668,292.568L499.616,292.527L489.656,285.087C488.395,284.145 486.609,284.403 485.667,285.664C484.725,286.925 484.983,288.711 486.244,289.653L534.424,325.653C535.684,326.595 537.472,326.336 538.413,325.076C539.355,323.816 539.096,322.028 537.836,321.087L499.668,292.568Z"
   style="fill:rgb(86,62,246);"
   id="path61" />
                        <path
   d="M412.428,234.531L852.198,562.091C863.507,570.514 879.527,568.171 887.951,556.862C896.374,545.553 894.031,529.533 882.722,521.109L442.952,193.549C431.643,185.126 415.623,187.469 407.199,198.778C398.776,210.087 401.119,226.107 412.428,234.531Z"
   style="fill:rgb(91,67,250);"
   id="path63" />
                        
                        <path
   d="M 1005.489,121.68271 852.865,14.457 c -11.52,-8.132 -27.476,-5.382 -35.608,6.138 -8.132,11.52 -5.382,27.476 6.138,35.608 l 152.63402,107.22571 c 11.51,8.132 27.46998,5.382 35.59998,-6.138 8.13,-11.52 5.38,-27.476 -6.14,-35.608 z"
   style="fill:#5b43fa"
   id="path67"
   sodipodi:nodetypes="ccsccsc" />
                        <path
   d="M593.754,0L506.28,0L644.474,99.467C655.919,107.705 671.899,105.101 680.137,93.656C688.375,82.211 685.771,66.231 674.326,57.993L593.754,0Z"
   style="fill:rgb(91,67,250);"
   id="path69" />
                        <path
   d="M733.358,1006.64L538.738,852.263C527.691,843.499 511.606,845.354 502.843,856.402C494.079,867.449 495.934,883.534 506.982,892.297L701.602,1046.68C712.649,1055.44 728.734,1053.59 737.497,1042.54C746.261,1031.49 744.406,1015.41 733.358,1006.64Z"
   style="fill:rgb(91,67,250);"
   id="path71" />
                        
                        
                        <path
   d="M631.525,562.713L550.545,500.883C539.337,492.325 523.29,494.477 514.733,505.685C506.175,516.893 508.327,532.94 519.535,541.497L600.515,603.327C611.723,611.885 627.77,609.733 636.327,598.525C644.885,587.317 642.733,571.27 631.525,562.713Z"
   style="fill:rgb(91,67,250);"
   id="path77" />
                        
                        <path
   d="M402.717,255.688L819.787,567.318C831.083,575.758 847.107,573.44 855.548,562.143C863.988,550.847 861.67,534.823 850.373,526.382L433.303,214.752C422.007,206.312 405.983,208.63 397.542,219.927C389.102,231.223 391.42,247.247 402.717,255.688Z"
   style="fill:rgb(130,114,239);"
   id="path81" />
                        <path
   d="M830.286,60.504L971.316,160.054C982.836,168.186 998.792,165.435 1006.92,153.914C1015.06,142.394 1012.31,126.438 1000.78,118.306L859.754,18.756C848.234,10.624 832.278,13.375 824.146,24.896C816.014,36.416 818.765,52.372 830.286,60.504Z"
   style="fill:rgb(130,114,239);"
   id="path83" />
                        <path
   d="M574.191,0L519.368,0C515.3,10.569 518.664,22.965 528.279,29.896L629.359,102.766C640.797,111.012 656.779,108.42 665.026,96.981C673.272,85.543 670.68,69.561 659.241,61.314L574.191,0Z"
   style="fill:rgb(130,114,239);"
   id="path85" />
                        <path
   d="M1297.16,818.98L1540.15,998.563C1551.5,1006.95 1567.51,1004.54 1575.89,993.202C1584.27,981.861 1581.87,965.85 1570.53,957.469L1327.54,777.886C1316.19,769.504 1300.18,771.907 1291.8,783.247C1283.42,794.588 1285.82,810.599 1297.16,818.98Z"
   style="fill:rgb(130,114,239);"
   id="path87" />
                        <path
   d="M487.41,899.169L689.11,1059.53C700.148,1068.31 716.234,1066.47 725.009,1055.43C733.785,1044.39 731.948,1028.31 720.91,1019.53L519.21,859.171C508.172,850.395 492.086,852.232 483.311,863.27C474.535,874.308 476.372,890.394 487.41,899.169Z"
   style="fill:rgb(130,114,239);"
   id="path89" />
                        <path
   d="M516.01,554.246L585.28,607.216C596.482,615.782 612.53,613.642 621.096,602.44C629.662,591.238 627.522,575.19 616.32,566.624L547.05,513.654C535.848,505.088 519.8,507.228 511.234,518.43C502.668,529.632 504.808,545.68 516.01,554.246Z"
   style="fill:rgb(130,114,239);"
   id="path91" />
                        <path
   d="M1439.68,1200L1524.12,1200L1462.43,1153.11C1451.21,1144.58 1435.16,1146.76 1426.63,1157.99C1418.1,1169.21 1420.28,1185.26 1431.51,1193.79L1439.68,1200Z"
   style="fill:rgb(130,114,239);"
   id="path93" />
                        <path
   d="M1600.04,314.547L1600.04,222.179C1584.68,214.622 1565.6,218.61 1554.69,232.652C1542.21,248.712 1545.12,271.882 1561.18,284.36L1600.04,314.547Z"
   style="fill:rgb(158,183,229);"
   id="path95" />
                        <path
   d="M1600.04,58.661L1600.04,122.895L1438.68,0L1523.02,0L1600.04,58.661Z"
   style="fill:rgb(91,67,250);"
   id="path97" />
                        <path
   d="M1600.04,1157.23L1600.04,1065.31L1594.83,1061.43C1578.53,1049.28 1555.42,1052.65 1543.26,1068.96C1531.11,1085.27 1534.48,1108.37 1550.79,1120.53L1600.04,1157.23Z"
   style="fill:rgb(158,183,229);"
   id="path99" />
                        <path
   d="M-2.962,700.623L-2.962,791.403L263.085,982.737C279.596,994.611 302.642,990.847 314.517,974.335C326.391,957.824 322.627,934.778 306.115,922.903L-2.962,700.623Z"
   style="fill:rgb(158,183,229);"
   id="path101" />
                        <path
   d="M-2.962,586.717L-2.962,677.126L34.676,703.87C51.256,715.649 74.28,711.753 86.06,695.174C97.839,678.594 93.943,655.57 77.364,643.79L-2.962,586.717Z"
   style="fill:rgb(158,183,229);"
   id="path103" />
                        <path
   d="M-2.962,596.926L-2.962,687.368L21.881,705.039C38.454,716.827 61.48,712.942 73.269,696.369C85.057,679.796 81.172,656.77 64.599,644.981L-2.962,596.926Z"
   style="fill:rgb(245,221,144);"
   id="path105" />
                        
                        <path
   d="M-2.962,55.507L-2.962,117.306C6.757,119.898 17.52,116.58 23.98,108.082C32.514,96.856 30.328,80.814 19.102,72.28L-2.962,55.507Z"
   style="fill:rgb(130,114,239);"
   id="path109" />
                        <path
   d="M427.762,0L308.609,0L374.514,49.124C390.82,61.278 413.927,57.907 426.082,41.601C435.426,29.064 435.594,12.509 427.762,0Z"
   style="fill:rgb(158,183,229);"
   id="path111" />
                        <path
   d="M1070.58,0L952.781,0C955.282,7.158 960.003,13.609 966.732,18.216L1148.82,142.893C1165.6,154.383 1188.55,150.088 1200.04,133.307C1211.53,116.526 1207.24,93.573 1190.46,82.082L1070.58,0Z"
   style="fill:rgb(158,183,229);"
   id="path113" />
                        <path
   d="M406.962,0L283.64,0L372.986,66.596C389.293,78.751 412.399,75.38 424.554,59.073C436.709,42.767 433.338,19.66 417.031,7.505L406.962,0Z"
   style="fill:rgb(245,221,144);"
   id="path115" />
                        <path
   d="M1051.8,0L940.682,0C942.383,9.34 947.665,18.022 956.108,23.802L1146.12,153.909C1162.9,165.399 1185.86,161.104 1197.35,144.322C1208.84,127.541 1204.54,104.588 1187.76,93.098L1051.8,0Z"
   style="fill:rgb(242,108,167);"
   id="path117" />
                        <path
   d="M1439.61,0L1588.21,112.96C1591.79,115.686 1595.87,117.318 1600.04,117.911L1600.04,57.764L1524.05,0L1439.61,0Z"
   style="fill:rgb(130,114,239);"
   id="path119" />
                        <path
   d="M180.764,1200L57.439,1200L-2.962,1154.98L-2.962,1063.06L180.764,1200Z"
   style="fill:rgb(158,183,229);"
   id="path121" />
                        <path
   d="M1145.34,1200L1256.88,1200L1202.34,1162.71C1185.55,1151.23 1162.6,1155.54 1151.12,1172.33C1145.37,1180.75 1143.58,1190.71 1145.34,1200Z"
   style="fill:rgb(158,183,229);"
   id="path123" />
                        <path
   d="M1135.01,1200L1236.28,1200L1192.67,1170.13C1175.89,1158.64 1152.94,1162.94 1141.44,1179.72C1137.19,1185.93 1135.1,1192.99 1135.01,1200Z"
   style="fill:rgb(245,221,144);"
   id="path125" />
                        <path
   d="M519.387,1200L574.121,1200L558.161,1188.49C546.723,1180.25 530.741,1182.84 522.494,1194.28C521.19,1196.09 520.156,1198.01 519.387,1200Z"
   style="fill:rgb(130,114,239);"
   id="path127" />
                    </g>
                </g>
            </g>
        </svg>
